<?xml version="1.0" encoding="UTF-8" standalone="no"?>
<!-- Created with Inkscape (http://www.inkscape.org/) -->

<svg
   version="1.1"
   id="svg10"
   xml:space="preserve"
   width="675.59503"
   height="268.25565"
   viewBox="0 0 675.59503 268.25565"
   sodipodi:docname="3M_white.svg"
   inkscape:version="1.2 (dc2aeda, 2022-05-15)"
   inkscape:export-filename="3M.png"
   inkscape:export-xdpi="96"
   inkscape:export-ydpi="96"
   xmlns:inkscape="http://www.inkscape.org/namespaces/inkscape"
   xmlns:sodipodi="http://sodipodi.sourceforge.net/DTD/sodipodi-0.dtd"
   xmlns="http://www.w3.org/2000/svg"
   xmlns:svg="http://www.w3.org/2000/svg"
   xmlns:rdf="http://www.w3.org/1999/02/22-rdf-syntax-ns#"
   xmlns:cc="http://creativecommons.org/ns#"
   xmlns:dc="http://purl.org/dc/elements/1.1/"><metadata
     id="metadata16"><rdf:RDF><cc:Work
         rdf:about=""><dc:format>image/svg+xml</dc:format><dc:type
           rdf:resource="http://purl.org/dc/dcmitype/StillImage" /><dc:title /></cc:Work></rdf:RDF></metadata><defs
     id="defs14" /><sodipodi:namedview
     pagecolor="#ffffff"
     bordercolor="#666666"
     borderopacity="1"
     objecttolerance="10"
     gridtolerance="10"
     guidetolerance="10"
     inkscape:pageopacity="0"
     inkscape:pageshadow="2"
     inkscape:window-width="2385"
     inkscape:window-height="1205"
     id="namedview12"
     showgrid="false"
     inkscape:zoom="2.4637541"
     inkscape:cx="327.14304"
     inkscape:cy="154.845"
     inkscape:window-x="0"
     inkscape:window-y="25"
     inkscape:window-maximized="0"
     inkscape:current-layer="g1075"
     showguides="true"
     inkscape:showpageshadow="2"
     inkscape:pagecheckerboard="0"
     inkscape:deskcolor="#d1d1d1"><inkscape:grid
       type="xygrid"
       id="grid935" /></sodipodi:namedview><g
     id="g18"
     inkscape:groupmode="layer"
     inkscape:label="MMM_Logo_transparent"
     transform="matrix(1.3333333,0,0,-1.3333333,0,268.25566)"><g
       id="g1075"><path
         id="path28"
         d="m 107.38184,192.27671 a 5.9055192,5.9055192 0 0 1 -2.72315,-11.04932 c 0,0 21.98231,-12.69144 39.15088,-22.604 1.13219,0.65343 3.33206,1.92396 4.09277,2.36279 3.00288,1.73322 6.3075,2.86313 9.65772,3.33399 -16.82324,9.71302 -46.99804,27.13476 -46.99804,27.13476 a 5.9055192,5.9055192 0 0 1 -3.18018,0.82178 z m 53.833,-56.08154 c -1.32619,-0.7656 -46.32128,-26.74102 -50.7246,-29.28223 l -0.001,-0.003 c -3.54276,-2.0463 -6.09666,-5.10228 -8.05518,-8.494638 -1.95852,-3.392355 -3.327192,-7.12911 -3.329592,-11.216303 v -0.0015 -0.003 c 0,0 0.003,-46.656293 0.003,-58.576179 2.931762,1.692938 6.868182,3.964193 11.809572,6.817388 -5.7e-4,16.766828 -0.003,51.750286 -0.003,51.755859 v 0.0045 c 0.002,1.077667 0.61193,3.346373 1.74902,5.315918 1.13764,1.970527 2.79512,3.631747 3.72949,4.171875 h 0.003 c 3.90129,2.251485 35.54549,20.52084 44.81982,25.875 z M 29.028809,55.924659 A 5.9055192,5.9055192 0 0 1 25.921876,44.859226 L 72.924318,17.721533 c -1.268562,3.137992 -1.943946,6.566167 -1.943847,10.035645 0,0 2e-6,4.090402 0,4.724115 L 31.828126,55.085304 a 5.9055192,5.9055192 0 0 1 -2.799317,0.839355 z"
         style="color:#ffffff;font-style:normal;font-variant:normal;font-weight:normal;font-stretch:normal;font-size:medium;line-height:normal;font-family:sans-serif;font-variant-ligatures:normal;font-variant-position:normal;font-variant-caps:normal;font-variant-numeric:normal;font-variant-alternates:normal;font-feature-settings:normal;text-indent:0;text-align:start;text-decoration:none;text-decoration-line:none;text-decoration-style:solid;text-decoration-color:#ffffff;letter-spacing:normal;word-spacing:normal;text-transform:none;writing-mode:lr-tb;direction:ltr;text-orientation:mixed;dominant-baseline:auto;baseline-shift:baseline;text-anchor:start;white-space:normal;shape-padding:0;clip-rule:nonzero;display:inline;overflow:visible;visibility:visible;opacity:1;isolation:auto;mix-blend-mode:normal;color-interpolation:sRGB;color-interpolation-filters:linearRGB;solid-color:#ffffff;solid-opacity:1;vector-effect:none;fill:#888888;fill-opacity:1;fill-rule:nonzero;stroke:none;stroke-width:11.80985737;stroke-linecap:round;stroke-linejoin:miter;stroke-miterlimit:4;stroke-dasharray:none;stroke-dashoffset:0;stroke-opacity:1;color-rendering:auto;image-rendering:auto;shape-rendering:auto;text-rendering:auto;enable-background:accumulate"
         inkscape:connector-curvature="0" /><path
         id="path36"
         d="m 79.249517,192.28696 a 5.9055192,5.9055192 0 0 1 -2.800785,-0.83349 L 29.455079,164.3187 c 3.350313,-0.47121 6.654596,-1.59997 9.657715,-3.33398 l 0.0029,-0.003 c 3.34e-4,-1.6e-4 3.540673,-2.04371 4.088379,-2.35986 l 39.150884,22.604 a 5.9055192,5.9055192 0 0 1 -3.105465,11.06103 z M 25.794434,136.19517 V 122.5604 c 14.519451,-8.38002 44.82715,-25.876465 44.82715,-25.876465 0.934539,-0.542243 2.59261,-2.205668 3.729492,-4.174808 1.138204,-1.971427 1.749011,-4.240695 1.749026,-5.314448 -1.95e-4,-5.16987 0,-59.437501 0,-59.437501 -2.1e-4,-7.169438 3.263588,-13.564425 8.783198,-16.751956 2.759812,-1.5937646 5.934045,-2.2984421 9.193365,-2.1562496 3.259313,0.1421925 6.604005,1.13073 9.708985,2.9238296 9.54863,5.514233 57.30469,33.086424 57.30469,33.086424 a 5.9058507,5.9058507 0 1 1 -5.90625,10.229003 c 0,0 -47.75249,-27.571591 -57.304692,-33.087894 -3.341468,-1.92966 -5.583106,-1.637707 -7.089848,-0.767572 -1.506735,0.870127 -2.881455,2.667007 -2.881343,6.524415 0,0 -1.95e-4,54.271149 0,59.437501 -6e-5,4.090201 -1.369717,7.828636 -3.328125,11.220698 -1.958415,3.392073 -4.510867,6.447693 -8.049315,8.494633 h -0.0015 l -0.0015,0.002 c 0,0 -40.403784,23.32409 -50.7334,29.28369 z"
         style="color:#ffffff;font-style:normal;font-variant:normal;font-weight:normal;font-stretch:normal;font-size:medium;line-height:normal;font-family:sans-serif;font-variant-ligatures:normal;font-variant-position:normal;font-variant-caps:normal;font-variant-numeric:normal;font-variant-alternates:normal;font-feature-settings:normal;text-indent:0;text-align:start;text-decoration:none;text-decoration-line:none;text-decoration-style:solid;text-decoration-color:#ffffff;letter-spacing:normal;word-spacing:normal;text-transform:none;writing-mode:lr-tb;direction:ltr;text-orientation:mixed;dominant-baseline:auto;baseline-shift:baseline;text-anchor:start;white-space:normal;shape-padding:0;clip-rule:nonzero;display:inline;overflow:visible;visibility:visible;opacity:1;isolation:auto;mix-blend-mode:normal;color-interpolation:sRGB;color-interpolation-filters:linearRGB;solid-color:#ffffff;solid-opacity:1;vector-effect:none;fill:#ffffff;fill-opacity:1;fill-rule:nonzero;stroke:none;stroke-width:11.80985737;stroke-linecap:round;stroke-linejoin:miter;stroke-miterlimit:4;stroke-dasharray:none;stroke-dashoffset:0;stroke-opacity:1;color-rendering:auto;image-rendering:auto;shape-rendering:auto;text-rendering:auto;enable-background:accumulate"
         inkscape:connector-curvature="0" /><path
         inkscape:connector-curvature="0"
         id="path44"
         d="m 14.683594,68.410156 a 5.9055197,5.9055197 0 0 0 -5.8164065,5.988282 v 66.167972 c 0,7.17101 3.2667725,13.56685 8.7871095,16.7539 5.520337,3.18706 12.691054,2.81656 18.900391,-0.76953 0,0 46.961287,-27.1103 51.46875,-29.7168 0.934744,-0.53909 3.206237,-1.14648 5.482421,-1.14648 2.276184,0 4.547678,0.60739 5.482422,1.14648 0.0061,0.004 41.909359,24.2031 51.470699,29.71875 6.20874,3.58481 13.37896,3.95437 18.89844,0.76758 5.52016,-3.18717 8.78516,-9.58307 8.78516,-16.7539 V 74.398438 a 5.9055197,5.9055197 0 1 0 -11.8086,0 v 66.167972 c 0,3.86016 -1.37476,5.65777 -2.88086,6.52734 -1.50609,0.86957 -3.7481,1.16043 -7.08984,-0.76953 h -0.002 v -0.002 c -9.54796,-5.50794 -51.47071,-29.7168 -51.47071,-29.7168 l -0.002,-0.002 c -3.54225,-2.04291 -7.465495,-2.72657 -11.382811,-2.72657 -3.917316,0 -7.840556,0.68366 -11.382812,2.72657 l -0.002,0.002 -0.0039,0.002 c -4.446049,2.57099 -51.466797,29.7168 -51.466797,29.7168 h -0.002 c -3.341664,1.92991 -5.583432,1.63923 -7.089844,0.76953 -1.506413,-0.8697 -2.88086,-2.66736 -2.88086,-6.52734 V 74.398438 a 5.9055197,5.9055197 0 0 0 -5.99414,-5.988282 z"
         style="color:#ffffff;font-style:normal;font-variant:normal;font-weight:normal;font-stretch:normal;font-size:medium;line-height:normal;font-family:sans-serif;font-variant-ligatures:normal;font-variant-position:normal;font-variant-caps:normal;font-variant-numeric:normal;font-variant-alternates:normal;font-feature-settings:normal;text-indent:0;text-align:start;text-decoration:none;text-decoration-line:none;text-decoration-style:solid;text-decoration-color:#ffffff;letter-spacing:normal;word-spacing:normal;text-transform:none;writing-mode:lr-tb;direction:ltr;text-orientation:mixed;dominant-baseline:auto;baseline-shift:baseline;text-anchor:start;white-space:normal;shape-padding:0;clip-rule:nonzero;display:inline;overflow:visible;visibility:visible;opacity:1;isolation:auto;mix-blend-mode:normal;color-interpolation:sRGB;color-interpolation-filters:linearRGB;solid-color:#ffffff;solid-opacity:1;vector-effect:none;fill:#c41425;fill-opacity:1;fill-rule:nonzero;stroke:none;stroke-width:11.80985832;stroke-linecap:round;stroke-linejoin:miter;stroke-miterlimit:4;stroke-dasharray:none;stroke-dashoffset:0;stroke-opacity:1;color-rendering:auto;image-rendering:auto;shape-rendering:auto;text-rendering:auto;enable-background:accumulate" /><path
         d="m 216.012,128.325 v 24.765 h 4 v -3.875 c 2.133,2.758 4.812,4.141 8.031,4.141 3.562,0 5.891,-1.485 6.984,-4.453 2.239,2.968 5.016,4.453 8.328,4.453 1.395,0 2.594,-0.231 3.594,-0.688 1,-0.461 1.742,-0.996 2.235,-1.609 0.5,-0.606 0.882,-1.383 1.156,-2.328 0.281,-0.949 0.437,-1.731 0.469,-2.344 0.039,-0.605 0.062,-1.344 0.062,-2.219 v -15.843 h -4.359 v 15.437 c 0,0.07 0,0.18 0,0.328 0,0.156 -0.039,0.453 -0.11,0.891 -0.062,0.445 -0.156,0.863 -0.281,1.25 -0.125,0.383 -0.32,0.812 -0.578,1.281 -0.262,0.477 -0.578,0.891 -0.953,1.234 -0.367,0.352 -0.84,0.649 -1.422,0.891 -0.574,0.238 -1.23,0.359 -1.969,0.359 -1.949,0 -3.371,-0.824 -4.265,-2.468 -0.899,-1.649 -1.344,-3.641 -1.344,-5.985 v -13.218 h -4.297 v 15.437 c 0,0.625 -0.012,1.117 -0.031,1.484 -0.024,0.375 -0.133,0.899 -0.328,1.579 -0.188,0.687 -0.461,1.226 -0.813,1.625 -0.344,0.406 -0.875,0.765 -1.594,1.078 -0.718,0.312 -1.601,0.468 -2.64,0.468 -1.949,0 -3.367,-0.824 -4.25,-2.468 -0.887,-1.649 -1.328,-3.641 -1.328,-5.985 v -13.218 z"
         style="fill:#c41425;fill-opacity:1;fill-rule:nonzero;stroke:none"
         id="path68"
         inkscape:connector-curvature="0" /><path
         d="m 257.352,140.762 c 0,3.633 1.101,6.695 3.312,9.188 2.219,2.488 4.813,3.734 7.781,3.734 1.094,0 2.133,-0.18 3.125,-0.531 1,-0.356 2.004,-0.934 3.016,-1.735 1.008,-0.804 1.844,-2.011 2.5,-3.625 0.664,-1.617 1.055,-3.539 1.172,-5.765 v -1.594 h -17.063 c 0.102,-2.762 0.942,-5.008 2.516,-6.734 1.582,-1.719 3.457,-2.579 5.625,-2.579 2.789,0 5.57,1.008 8.344,3.032 l 0.359,-3.625 c -2.793,-1.868 -5.695,-2.805 -8.703,-2.828 -3.492,0 -6.359,1.289 -8.609,3.875 -2.25,2.593 -3.375,5.656 -3.375,9.187 z m 4.109,2.688 h 13.641 c -0.211,1.425 -0.602,2.632 -1.172,3.625 -0.575,1 -1.219,1.707 -1.938,2.125 -0.719,0.425 -1.359,0.707 -1.922,0.843 -0.562,0.145 -1.105,0.219 -1.625,0.219 -1.867,0 -3.406,-0.719 -4.625,-2.156 -1.211,-1.43 -1.996,-2.981 -2.359,-4.656 z"
         style="fill:#c41425;fill-opacity:1;fill-rule:nonzero;stroke:none"
         id="path70"
         inkscape:connector-curvature="0" /><path
         d="m 281.938,140.59 c 0,3.406 1.093,6.438 3.281,9.094 2.195,2.664 5.129,4 8.797,4 1.718,0 3.144,-0.168 4.281,-0.5 1.133,-0.336 2.555,-0.977 4.266,-1.922 l -0.672,-3.625 c -1.793,1.125 -3.164,1.82 -4.11,2.094 -1.062,0.281 -2.336,0.422 -3.812,0.422 -2.492,0 -4.406,-0.946 -5.75,-2.828 -1.344,-1.887 -2.016,-4.133 -2.016,-6.735 0,-2.719 0.711,-4.961 2.141,-6.719 1.437,-1.75 3.289,-2.625 5.562,-2.625 2.864,0 5.75,0.985 8.657,2.954 l 0.265,-3.672 c -2.898,-1.868 -5.887,-2.805 -8.969,-2.828 -3.367,0 -6.195,1.253 -8.484,3.765 -2.293,2.52 -3.437,5.563 -3.437,9.125 z"
         style="fill:#c41425;fill-opacity:1;fill-rule:nonzero;stroke:none"
         id="path72"
         inkscape:connector-curvature="0" /><path
         d="m 308.93,128.325 v 39.718 h 4.109 v -18.609 c 2.195,2.594 4.836,3.898 7.922,3.922 1.394,0 2.586,-0.219 3.578,-0.656 1,-0.438 1.742,-0.965 2.234,-1.579 0.489,-0.605 0.875,-1.375 1.157,-2.312 0.281,-0.93 0.445,-1.715 0.5,-2.359 0.05,-0.649 0.078,-1.407 0.078,-2.282 v -15.843 h -4.297 v 15.437 c 0,0.625 -0.012,1.117 -0.031,1.484 -0.024,0.375 -0.133,0.899 -0.328,1.579 -0.188,0.687 -0.461,1.226 -0.813,1.625 -0.344,0.406 -0.875,0.765 -1.594,1.078 -0.718,0.312 -1.601,0.468 -2.64,0.468 -1.95,0 -3.367,-0.824 -4.25,-2.468 -0.887,-1.649 -1.328,-3.641 -1.328,-5.985 v -13.218 z"
         style="fill:#c41425;fill-opacity:1;fill-rule:nonzero;stroke:none"
         id="path74"
         inkscape:connector-curvature="0" /><path
         d="m 335.492,134.528 c 0,1.363 0.508,2.55 1.531,3.562 1.032,1.008 2.379,1.758 4.047,2.25 1.664,0.488 3.297,0.852 4.891,1.094 1.594,0.25 3.195,0.375 4.812,0.375 v 1.844 c -0.074,2.351 -0.546,4.047 -1.421,5.078 -0.918,1.094 -2.075,1.64 -3.469,1.64 -2.836,0 -5.586,-0.933 -8.25,-2.796 l -0.313,3.687 c 2.75,1.613 5.618,2.422 8.61,2.422 2.531,0 4.648,-0.836 6.359,-2.5 1.707,-1.668 2.633,-3.695 2.781,-6.078 v -16.781 h -4.172 v 1.937 c -0.136,-0.148 -0.476,-0.387 -1.015,-0.719 -0.543,-0.336 -1.586,-0.726 -3.125,-1.172 -1.531,-0.445 -3.195,-0.671 -4.985,-0.671 -2.093,0 -3.668,0.742 -4.718,2.234 -1.043,1.488 -1.563,3.019 -1.563,4.594 z m 4.031,0.047 c 0,-0.981 0.477,-1.805 1.438,-2.469 0.969,-0.656 2.187,-0.985 3.656,-0.985 1.571,0 2.988,0.329 4.25,0.985 1.27,0.664 1.906,1.785 1.906,3.359 v 3.469 c -1.136,0 -2.293,-0.074 -3.468,-0.219 -1.168,-0.148 -2.375,-0.367 -3.625,-0.656 -1.242,-0.293 -2.246,-0.746 -3.016,-1.359 -0.762,-0.606 -1.141,-1.313 -1.141,-2.125 z"
         style="fill:#c41425;fill-opacity:1;fill-rule:nonzero;stroke:none"
         id="path76"
         inkscape:connector-curvature="0" /><path
         d="m 364,128.325 v 24.765 h 4 v -3.875 c 2.133,2.758 4.813,4.141 8.031,4.141 1.364,0 2.532,-0.203 3.5,-0.61 0.977,-0.398 1.723,-0.89 2.235,-1.484 0.507,-0.594 0.898,-1.34 1.172,-2.234 0.281,-0.899 0.457,-1.696 0.531,-2.391 0.07,-0.699 0.109,-1.523 0.109,-2.469 v -15.843 h -4.297 v 15.437 c 0,0.625 -0.011,1.117 -0.031,1.484 -0.023,0.375 -0.133,0.899 -0.328,1.579 -0.188,0.687 -0.461,1.226 -0.813,1.625 -0.343,0.406 -0.875,0.765 -1.593,1.078 -0.719,0.312 -1.602,0.468 -2.641,0.468 -1.949,0 -3.367,-0.824 -4.25,-2.468 -0.887,-1.649 -1.328,-3.641 -1.328,-5.985 v -13.218 z"
         style="fill:#c41425;fill-opacity:1;fill-rule:nonzero;stroke:none"
         id="path78"
         inkscape:connector-curvature="0" /><path
         d="m 392.219,160.762 v 4.922 h 4.953 v -4.922 z m 0.375,-32.437 v 24.468 h 4.109 v -24.468 z"
         style="fill:#c41425;fill-opacity:1;fill-rule:nonzero;stroke:none"
         id="path80"
         inkscape:connector-curvature="0" /><path
         d="m 403.273,140.59 c 0,3.406 1.094,6.438 3.282,9.094 2.195,2.664 5.129,4 8.797,4 1.718,0 3.144,-0.168 4.281,-0.5 1.133,-0.336 2.555,-0.977 4.265,-1.922 l -0.671,-3.625 c -1.793,1.125 -3.164,1.82 -4.11,2.094 -1.062,0.281 -2.336,0.422 -3.812,0.422 -2.492,0 -4.407,-0.946 -5.75,-2.828 -1.344,-1.887 -2.016,-4.133 -2.016,-6.735 0,-2.719 0.711,-4.961 2.141,-6.719 1.437,-1.75 3.289,-2.625 5.562,-2.625 2.863,0 5.75,0.985 8.656,2.954 l 0.266,-3.672 c -2.898,-1.868 -5.887,-2.805 -8.969,-2.828 -3.367,0 -6.195,1.253 -8.484,3.765 -2.293,2.52 -3.438,5.563 -3.438,9.125 z"
         style="fill:#c41425;fill-opacity:1;fill-rule:nonzero;stroke:none"
         id="path82"
         inkscape:connector-curvature="0" /><path
         d="m 427.348,130.2 0.672,3.734 c 0.062,-0.031 0.296,-0.172 0.703,-0.422 0.406,-0.242 0.707,-0.414 0.906,-0.516 0.207,-0.105 0.539,-0.273 1,-0.5 0.457,-0.218 0.879,-0.39 1.266,-0.515 0.382,-0.125 0.832,-0.262 1.343,-0.406 0.508,-0.149 1.051,-0.25 1.625,-0.313 0.571,-0.062 1.16,-0.094 1.766,-0.094 1.832,0 3.144,0.391 3.937,1.172 0.801,0.781 1.204,1.645 1.204,2.594 0,0.906 -0.336,1.66 -1,2.266 -0.668,0.613 -1.368,1.031 -2.094,1.25 -0.367,0.101 -1.184,0.285 -2.453,0.546 -1.274,0.258 -2.211,0.477 -2.813,0.657 -1.5,0.488 -2.828,1.304 -3.984,2.453 -1.156,1.156 -1.735,2.594 -1.735,4.312 0,0.844 0.125,1.641 0.375,2.391 0.25,0.758 0.676,1.531 1.282,2.312 0.613,0.789 1.55,1.414 2.812,1.875 1.258,0.457 2.77,0.688 4.531,0.688 2.625,0 5.301,-0.57 8.032,-1.703 l -0.594,-3.656 c -0.043,0.039 -0.258,0.144 -0.641,0.312 -0.386,0.176 -0.605,0.281 -0.656,0.313 -0.055,0.031 -0.258,0.117 -0.609,0.265 -0.344,0.145 -0.586,0.238 -0.719,0.281 -0.137,0.051 -0.367,0.141 -0.688,0.266 -0.324,0.125 -0.578,0.191 -0.765,0.203 -0.188,0.02 -0.461,0.07 -0.813,0.156 -0.343,0.094 -0.652,0.149 -0.922,0.172 -0.261,0.02 -0.578,0.035 -0.953,0.047 -0.367,0.02 -0.75,0.031 -1.156,0.031 -1.687,0 -2.883,-0.343 -3.578,-1.031 -0.699,-0.68 -1.047,-1.453 -1.047,-2.328 0,-1.219 0.484,-2.094 1.453,-2.625 0.977,-0.523 2.344,-0.934 4.094,-1.234 1.758,-0.305 3.008,-0.625 3.75,-0.969 1.32,-0.594 2.445,-1.481 3.375,-2.656 0.937,-1.168 1.406,-2.575 1.406,-4.219 0,-0.844 -0.125,-1.672 -0.375,-2.484 -0.25,-0.805 -0.683,-1.606 -1.297,-2.407 -0.605,-0.804 -1.543,-1.461 -2.812,-1.968 -1.262,-0.5 -2.758,-0.75 -4.485,-0.75 -3.23,0.023 -6.343,0.851 -9.343,2.5 z"
         style="fill:#c41425;fill-opacity:1;fill-rule:nonzero;stroke:none"
         id="path84"
         inkscape:connector-curvature="0" /><path
         d="m 216.012,70.586 v 24.766 h 4 v -3.875 c 2.133,2.758 4.812,4.141 8.031,4.141 3.562,0 5.891,-1.485 6.984,-4.454 2.239,2.969 5.016,4.454 8.328,4.454 1.395,0 2.594,-0.231 3.594,-0.688 1,-0.461 1.742,-0.996 2.235,-1.609 0.5,-0.606 0.882,-1.383 1.156,-2.328 0.281,-0.95 0.437,-1.731 0.469,-2.344 0.039,-0.606 0.062,-1.344 0.062,-2.219 V 70.586 h -4.359 v 15.438 c 0,0.07 0,0.179 0,0.328 0,0.156 -0.039,0.453 -0.11,0.891 -0.062,0.445 -0.156,0.863 -0.281,1.25 -0.125,0.382 -0.32,0.812 -0.578,1.281 -0.262,0.476 -0.578,0.89 -0.953,1.234 -0.367,0.352 -0.84,0.649 -1.422,0.891 -0.574,0.238 -1.23,0.359 -1.969,0.359 -1.949,0 -3.371,-0.824 -4.265,-2.469 -0.899,-1.648 -1.344,-3.64 -1.344,-5.984 V 70.586 h -4.297 v 15.438 c 0,0.625 -0.012,1.117 -0.031,1.484 -0.024,0.375 -0.133,0.899 -0.328,1.578 -0.188,0.688 -0.461,1.227 -0.813,1.625 -0.344,0.407 -0.875,0.766 -1.594,1.078 -0.718,0.313 -1.601,0.469 -2.64,0.469 -1.949,0 -3.367,-0.824 -4.25,-2.469 -0.887,-1.648 -1.328,-3.64 -1.328,-5.984 V 70.586 Z"
         style="fill:#888888;fill-opacity:1;fill-rule:nonzero;stroke:none"
         id="path86"
         inkscape:connector-curvature="0" /><path
         d="m 257.898,76.789 c 0,1.364 0.508,2.551 1.532,3.563 1.031,1.008 2.379,1.758 4.047,2.25 1.664,0.488 3.296,0.851 4.89,1.094 1.594,0.25 3.196,0.375 4.813,0.375 v 1.843 c -0.075,2.352 -0.547,4.047 -1.422,5.079 -0.918,1.093 -2.074,1.64 -3.469,1.64 -2.836,0 -5.586,-0.933 -8.25,-2.797 l -0.312,3.688 c 2.75,1.613 5.617,2.422 8.609,2.422 2.531,0 4.648,-0.836 6.359,-2.5 1.707,-1.668 2.633,-3.696 2.782,-6.078 V 70.586 h -4.172 v 1.938 c -0.137,-0.149 -0.477,-0.387 -1.016,-0.719 -0.543,-0.336 -1.586,-0.727 -3.125,-1.172 -1.531,-0.445 -3.195,-0.672 -4.984,-0.672 -2.094,0 -3.668,0.742 -4.719,2.235 -1.043,1.488 -1.563,3.019 -1.563,4.593 z m 4.032,0.047 c 0,-0.98 0.476,-1.804 1.437,-2.468 0.969,-0.657 2.188,-0.985 3.656,-0.985 1.571,0 2.989,0.328 4.25,0.985 1.27,0.664 1.907,1.785 1.907,3.359 v 3.469 c -1.137,0 -2.293,-0.075 -3.469,-0.219 -1.168,-0.149 -2.375,-0.367 -3.625,-0.656 -1.242,-0.293 -2.246,-0.746 -3.016,-1.36 -0.761,-0.605 -1.14,-1.312 -1.14,-2.125 z"
         style="fill:#888888;fill-opacity:1;fill-rule:nonzero;stroke:none"
         id="path88"
         inkscape:connector-curvature="0" /><path
         d="m 283,91.836 v 3.219 h 4.719 v 6.922 h 3.844 v -6.922 h 7.765 v -3.219 h -7.765 V 78.289 c 0,-3.187 0.992,-4.781 2.984,-4.781 1.531,0 3.141,0.602 4.828,1.813 l 0.891,-3.25 c -2.594,-1.407 -5.309,-2.11 -8.141,-2.11 -3.012,0 -4.516,2.36 -4.516,7.078 v 14.797 z"
         style="fill:#888888;fill-opacity:1;fill-rule:nonzero;stroke:none"
         id="path90"
         inkscape:connector-curvature="0" /><path
         d="m 303.813,83.024 c 0,3.633 1.101,6.695 3.312,9.187 2.219,2.489 4.813,3.735 7.781,3.735 1.094,0 2.133,-0.18 3.125,-0.532 1,-0.355 2.004,-0.933 3.016,-1.734 1.008,-0.805 1.844,-2.012 2.5,-3.625 0.664,-1.617 1.055,-3.539 1.172,-5.766 v -1.593 h -17.063 c 0.102,-2.762 0.942,-5.008 2.516,-6.735 1.582,-1.718 3.457,-2.578 5.625,-2.578 2.789,0 5.57,1.008 8.344,3.031 l 0.359,-3.625 c -2.793,-1.867 -5.695,-2.804 -8.703,-2.828 -3.492,0 -6.359,1.289 -8.609,3.875 -2.25,2.594 -3.375,5.657 -3.375,9.188 z m 4.109,2.687 h 13.641 c -0.211,1.426 -0.602,2.633 -1.172,3.625 -0.575,1 -1.219,1.707 -1.938,2.125 -0.719,0.426 -1.359,0.707 -1.922,0.844 -0.562,0.145 -1.105,0.219 -1.625,0.219 -1.867,0 -3.406,-0.719 -4.625,-2.156 -1.211,-1.43 -1.996,-2.981 -2.359,-4.657 z"
         style="fill:#888888;fill-opacity:1;fill-rule:nonzero;stroke:none"
         id="path92"
         inkscape:connector-curvature="0" /><path
         d="m 330.914,70.586 v 24.766 h 3.844 v -4.969 c 0.445,0.695 0.976,1.367 1.594,2.016 0.625,0.644 1.675,1.332 3.156,2.062 1.488,0.727 3.117,1.114 4.89,1.157 V 91.93 c -0.949,-0.031 -1.902,-0.203 -2.859,-0.516 -0.961,-0.312 -1.965,-0.812 -3.016,-1.5 -1.043,-0.679 -1.886,-1.714 -2.531,-3.109 -0.648,-1.398 -0.969,-3.027 -0.969,-4.891 V 70.586 Z"
         style="fill:#888888;fill-opacity:1;fill-rule:nonzero;stroke:none"
         id="path94"
         inkscape:connector-curvature="0" /><path
         d="m 349.426,103.024 v 4.922 h 4.953 v -4.922 z m 0.375,-32.438 v 24.469 h 4.109 V 70.586 Z"
         style="fill:#888888;fill-opacity:1;fill-rule:nonzero;stroke:none"
         id="path96"
         inkscape:connector-curvature="0" /><path
         d="m 360.965,76.789 c 0,1.364 0.508,2.551 1.531,3.563 1.031,1.008 2.379,1.758 4.047,2.25 1.664,0.488 3.297,0.851 4.891,1.094 1.593,0.25 3.195,0.375 4.812,0.375 v 1.843 c -0.074,2.352 -0.547,4.047 -1.422,5.079 -0.918,1.093 -2.074,1.64 -3.469,1.64 -2.835,0 -5.585,-0.933 -8.25,-2.797 l -0.312,3.688 c 2.75,1.613 5.617,2.422 8.609,2.422 2.532,0 4.649,-0.836 6.36,-2.5 1.707,-1.668 2.633,-3.696 2.781,-6.078 V 70.586 h -4.172 v 1.938 c -0.137,-0.149 -0.476,-0.387 -1.016,-0.719 -0.542,-0.336 -1.585,-0.727 -3.125,-1.172 -1.531,-0.445 -3.195,-0.672 -4.984,-0.672 -2.094,0 -3.668,0.742 -4.719,2.235 -1.043,1.488 -1.562,3.019 -1.562,4.593 z m 4.031,0.047 c 0,-0.98 0.477,-1.804 1.438,-2.468 0.968,-0.657 2.187,-0.985 3.656,-0.985 1.57,0 2.988,0.328 4.25,0.985 1.269,0.664 1.906,1.785 1.906,3.359 v 3.469 c -1.137,0 -2.293,-0.075 -3.469,-0.219 -1.168,-0.149 -2.375,-0.367 -3.625,-0.656 -1.242,-0.293 -2.246,-0.746 -3.015,-1.36 -0.762,-0.605 -1.141,-1.312 -1.141,-2.125 z"
         style="fill:#888888;fill-opacity:1;fill-rule:nonzero;stroke:none"
         id="path98"
         inkscape:connector-curvature="0" /><path
         d="m 389.523,110.305 h 4.109 V 70.586 h -4.109 z"
         style="fill:#888888;fill-opacity:1;fill-rule:nonzero;stroke:none"
         id="path100"
         inkscape:connector-curvature="0" /><path
         d="m 399.75,72.461 0.672,3.735 c 0.062,-0.032 0.297,-0.172 0.703,-0.422 0.406,-0.242 0.707,-0.414 0.906,-0.516 0.207,-0.105 0.539,-0.273 1,-0.5 0.457,-0.219 0.879,-0.39 1.266,-0.515 0.383,-0.125 0.832,-0.262 1.344,-0.407 0.507,-0.148 1.05,-0.25 1.625,-0.312 0.57,-0.063 1.16,-0.094 1.765,-0.094 1.832,0 3.145,0.391 3.938,1.172 0.801,0.781 1.203,1.644 1.203,2.594 0,0.906 -0.336,1.66 -1,2.265 -0.668,0.614 -1.367,1.032 -2.094,1.25 -0.367,0.102 -1.183,0.285 -2.453,0.547 -1.273,0.258 -2.211,0.477 -2.812,0.656 -1.5,0.489 -2.829,1.305 -3.985,2.454 -1.156,1.156 -1.734,2.593 -1.734,4.312 0,0.844 0.125,1.641 0.375,2.391 0.25,0.757 0.676,1.531 1.281,2.312 0.613,0.789 1.551,1.414 2.813,1.875 1.257,0.457 2.769,0.688 4.531,0.688 2.625,0 5.301,-0.571 8.031,-1.703 l -0.594,-3.657 c -0.043,0.039 -0.258,0.145 -0.64,0.313 -0.387,0.176 -0.606,0.281 -0.657,0.312 -0.054,0.032 -0.257,0.117 -0.609,0.266 -0.344,0.144 -0.586,0.238 -0.719,0.281 -0.136,0.051 -0.367,0.141 -0.687,0.266 -0.324,0.125 -0.578,0.191 -0.766,0.203 -0.187,0.019 -0.461,0.07 -0.812,0.156 -0.344,0.094 -0.653,0.149 -0.922,0.172 -0.262,0.02 -0.578,0.035 -0.953,0.047 -0.368,0.019 -0.75,0.031 -1.157,0.031 -1.687,0 -2.882,-0.344 -3.578,-1.031 -0.699,-0.68 -1.047,-1.453 -1.047,-2.328 0,-1.219 0.485,-2.094 1.454,-2.625 0.976,-0.524 2.343,-0.934 4.093,-1.235 1.758,-0.304 3.008,-0.625 3.75,-0.968 1.321,-0.594 2.446,-1.481 3.375,-2.657 0.938,-1.168 1.407,-2.574 1.407,-4.218 0,-0.844 -0.125,-1.672 -0.375,-2.485 -0.25,-0.804 -0.684,-1.605 -1.297,-2.406 -0.606,-0.805 -1.543,-1.461 -2.813,-1.969 -1.262,-0.5 -2.758,-0.75 -4.484,-0.75 -3.231,0.024 -6.344,0.852 -9.344,2.5 z"
         style="fill:#888888;fill-opacity:1;fill-rule:nonzero;stroke:none"
         id="path102"
         inkscape:connector-curvature="0" /></g></g></svg>
